<?xml version="1.0" encoding="utf-8"?>
<!-- Generator: Adobe Illustrator 19.0.0, SVG Export Plug-In . SVG Version: 6.00 Build 0)  -->
<svg version="1.1" id="Слой_1" xmlns="http://www.w3.org/2000/svg" xmlns:xlink="http://www.w3.org/1999/xlink" x="0px" y="0px"
	 width="110px" height="98px" viewBox="0 0 110 98" style="enable-background:new 0 0 110 98;" xml:space="preserve">
<style type="text/css">
	.st0{fill:#FFFFFF;}
</style>
<g>
	<path class="st0" d="M107.3,51.2c2.1-1.1,2.7-3.9,2.7-3.9s-3.1-0.3-5,1.2c-0.6,0.4-1.1,1.2-1.5,1.9c0.3-1.5,0.6-3.1,0.7-4.6
		c0.8-0.1,2.3-0.6,3.9-1.9c1.8-1.4,1.9-4.2,1.9-4.2s-3,0.2-4.6,2c-0.5,0.5-0.8,1.4-1.1,2.1c0-1.7,0-3.3-0.2-4.9
		c0.7-0.3,2.2-0.9,3.6-2.5c1.5-1.7,1.1-4.4,1.1-4.4s-2.9,0.8-4.1,2.7c-0.4,0.6-0.6,1.6-0.8,2.4c-0.3-1.7-0.6-3.3-1.1-4.9
		c0.6-0.3,2-1.3,3.1-3.1c1.2-1.9,0.4-4.4,0.4-4.4s-2.8,1.2-3.6,3.3c-0.3,0.8-0.3,1.9-0.3,2.8c-0.6-1.7-1.2-3.4-2-5
		c0.5-0.4,1.7-1.6,2.5-3.5c0.8-2-0.4-4.3-0.4-4.3s-2.4,1.6-2.8,3.8c-0.2,0.8,0,1.9,0.2,2.8c-0.9-1.7-1.8-3.2-2.9-4.7
		c0.4-0.6,1.3-1.9,1.7-3.7c0.4-2-1.1-4-1.1-4s-2.1,2-2.1,4.1c0,0.7,0.2,1.6,0.5,2.4c-1.1-1.4-2.3-2.7-3.5-3.7c0.3-0.5,1-1.9,1.1-4
		c0.1-2.1-1.7-3.8-1.7-3.8s-1.7,2.3-1.3,4.4c0.1,0.9,0.7,2,1.2,2.7c-1.5-1.3-3.1-2.5-4.5-3.4c0.2-0.5,0.8-2.1,0.4-4.1
		c-0.3-2-2.4-3.3-2.4-3.3S84,6,84.6,7.9c0.3,0.9,1.2,1.9,1.8,2.6c-1.9-1.2-3.6-2-5.1-2.7c0.1-0.4,0.4-2.1-0.3-4
		c-0.6-1.9-2.8-2.8-2.8-2.8s-0.7,2.6,0.2,4.4c0.5,0.9,1.6,1.8,2.3,2.3c-1.6-0.7-2.8-1-3.6-1.2c0.3-0.1,0.6-0.2,0.6-0.2
		s-1.3-1.7-2.9-2c-1.1-0.2-3,0.5-3,0.5s1,1.3,2.8,1.9c0.9,0.3,1.8,0.1,2.4-0.1c0.9,0.3,2.5,0.8,4.6,1.8c-0.7-0.1-2.5-0.4-3.5,0
		c-1.9,0.6-3.2,3-3.2,3s2.2,0.9,4-0.1c1.9-1,2.8-2.4,3-2.7c1.5,0.7,3.3,1.7,5.1,3c-0.8-0.3-2.3-0.7-3.3-0.6C81.7,11,80,13.2,80,13.2
		s2.1,1.2,4,0.6c2-0.6,3.2-1.8,3.5-2.2c1.4,1,2.9,2.2,4.3,3.5c0.1,0.1,0.2,0.2,0.3,0.3c-0.8-0.4-2.2-1.1-3.2-1.1
		c-2.1-0.1-4.2,1.7-4.2,1.7s1.9,1.7,3.9,1.4c2.1-0.3,3.5-1.3,3.9-1.6c1.3,1.3,2.6,2.8,3.8,4.5c-0.7-0.6-1.9-1.4-2.9-1.6
		c-2.1-0.4-4.5,1-4.5,1s1.6,2,3.7,2.1c2.1,0.1,3.7-0.7,4.2-0.9c1,1.5,2,3.2,2.8,4.9c-0.6-0.7-1.5-1.6-2.4-1.9
		c-2.1-0.8-4.7,0.3-4.7,0.3s1.2,2.2,3.3,2.7c2,0.4,3.6,0.1,4.2-0.1c0.7,1.6,1.3,3.4,1.9,5.1c-0.5-0.8-1.2-1.8-1.9-2.2
		c-1.9-1.2-4.8-0.6-4.8-0.6s0.8,2.5,2.9,3.3c1.9,0.8,3.5,0.7,4.2,0.7c0.4,1.7,0.8,3.5,1,5.3c-0.4-0.9-0.9-1.9-1.6-2.6
		c-1.7-1.5-4.7-1.4-4.7-1.4s0.4,2.7,2.3,3.9c1.7,1.1,3.4,1.3,4.1,1.3c0.1,1.8,0.1,3.6,0,5.5c-0.2-1-0.6-2.2-1.2-2.9
		c-1.4-1.9-4.5-2.3-4.5-2.3s0,2.8,1.6,4.3c1.5,1.5,3.2,2,3.9,2.2c-0.2,1.6-0.5,3.3-0.9,4.9c-0.1-1-0.2-2.1-0.6-2.9
		c-1.2-2.1-4.1-3.1-4.1-3.1s-0.6,2.8,0.8,4.6c1.3,1.7,2.8,2.5,3.5,2.8c-0.5,1.6-1,3.2-1.7,4.7c0.1-1,0.1-2.2-0.1-3
		c-0.8-2.3-3.6-3.9-3.6-3.9s-1,2.7,0.1,4.8c1,1.9,2.3,3,3,3.4c-0.7,1.4-1.5,2.8-2.4,4.1c0.2-0.9,0.4-2,0.3-2.8c-0.3-2.5-3-4.5-3-4.5
		s-1.5,2.5-0.8,4.8c0.6,2,1.7,3.3,2.3,3.9c-0.9,1.2-1.9,2.4-3,3.5c0.4-0.8,0.7-1.8,0.7-2.6c0.1-2.5-2.2-5-2.2-5s-1.9,2.2-1.6,4.7
		c0.3,2.1,1.1,3.6,1.6,4.3c-0.9,0.9-1.9,1.7-2.8,2.4V43.3H76.9v0.1h-2.8v-9.9h-8.5V30l-10.5-2.7L44.6,30v3.5h-8.4v9.6h-3.8v0.2h-11
		V72c-1.1-0.8-2.1-1.7-3.1-2.6c0.5-0.7,1.4-2.2,1.6-4.3c0.3-2.4-1.7-4.7-1.7-4.7s-2.2,2.5-2.1,5c0,0.8,0.4,1.8,0.8,2.6
		c-1.1-1.1-2.1-2.3-3-3.6c0.6-0.6,1.7-1.9,2.4-3.9c0.7-2.3-0.8-4.8-0.8-4.8s-2.6,2.1-2.9,4.5c-0.1,0.8,0,1.8,0.3,2.7
		c-0.9-1.3-1.7-2.6-2.4-4c0.7-0.5,2-1.6,3-3.5c1.1-2.1,0.1-4.7,0.1-4.7s-2.8,1.5-3.6,3.9c-0.3,0.8-0.2,2.1-0.1,3
		c-0.7-1.5-1.3-3.1-1.7-4.7c0.7-0.3,2.2-1.1,3.5-2.8c1.4-1.9,0.8-4.6,0.8-4.6s-3,1-4.1,3.1c-0.4,0.8-0.6,1.9-0.6,2.9
		c-0.4-1.6-0.8-3.3-0.9-4.9c0.7-0.2,2.3-0.7,3.9-2.1c1.6-1.5,1.6-4.3,1.6-4.3s-3.1,0.4-4.5,2.3c-0.6,0.7-0.9,1.9-1.2,2.9
		c-0.1-1.8-0.1-3.6,0-5.4c0.7,0,2.4-0.3,4.1-1.4c1.9-1.2,2.3-3.9,2.3-3.9s-3-0.1-4.7,1.4c-0.7,0.6-1.2,1.7-1.6,2.5
		c0.2-1.8,0.5-3.6,1-5.4c0.7,0.1,2.3,0.1,4.2-0.6c2.1-0.8,2.9-3.3,2.9-3.3s-2.9-0.6-4.8,0.6c-0.7,0.5-1.5,1.4-2,2.2
		c0.5-1.8,1.1-3.5,1.9-5.2c0.6,0.2,2.2,0.6,4.2,0.2c2.1-0.4,3.3-2.8,3.3-2.8s-2.6-1.1-4.7-0.3c-0.9,0.3-1.8,1.2-2.4,1.9
		c0.8-1.7,1.8-3.4,2.8-4.9c0.5,0.3,2,1,4.2,0.9c2.1-0.1,3.7-2.1,3.7-2.1s-2.4-1.5-4.5-1.1c-1,0.2-2.3,1.1-3,1.7
		c1.2-1.7,2.5-3.2,3.9-4.5c0.4,0.3,1.8,1.3,3.9,1.6c2,0.3,3.9-1.3,3.9-1.3s-2.1-1.9-4.2-1.8c-1,0-2.3,0.7-3.1,1.1
		c0.1-0.1,0.1-0.1,0.2-0.2c1.5-1.4,2.9-2.6,4.3-3.6c0.3,0.4,1.5,1.6,3.5,2.2c1.9,0.6,4-0.7,4-0.7s-1.7-2.1-3.7-2.4
		c-1-0.1-2.5,0.3-3.3,0.6c1.9-1.3,3.6-2.3,5.2-3c0.2,0.3,1.1,1.8,3,2.8c1.7,0.9,4,0.1,4,0.1s-1.3-2.4-3.2-3C30.8,7.7,29,8,28.3,8.1
		c2.4-1.1,4.2-1.7,5-1.9c0.6,0.2,1.6,0.5,2.6,0.2c1.8-0.6,2.8-1.9,2.8-1.9s-1.9-0.7-3-0.5c-1.6,0.3-2.9,1.9-2.9,1.9s0.2,0.1,0.4,0.2
		c-0.7,0.2-2.1,0.6-3.8,1.3c0.7-0.5,1.8-1.4,2.2-2.2c1-1.8,0.3-4.4,0.3-4.4s-2.2,1-2.9,2.8c-0.6,1.9-0.3,3.5-0.2,4
		c-1.5,0.6-3.2,1.5-5.1,2.7c0.6-0.6,1.5-1.6,1.8-2.5c0.6-1.9-0.5-4.4-0.5-4.4s-2.1,1.3-2.4,3.3c-0.3,2,0.2,3.6,0.4,4.1
		c-1.4,0.9-2.9,2-4.3,3.3c0.5-0.7,1-1.7,1.1-2.6c0.3-2.1-1.3-4.4-1.3-4.4s-1.8,1.7-1.7,3.7c0,2,0.7,3.4,1.1,4
		c-1.2,1.1-2.4,2.3-3.5,3.7c0.3-0.7,0.5-1.6,0.5-2.3c-0.1-2.2-2.1-4.1-2.1-4.1s-1.5,2.1-1.1,4c0.4,1.9,1.3,3.1,1.7,3.7
		c-1,1.4-2,3-2.9,4.7c0.2-0.9,0.4-1.9,0.2-2.7c-0.4-2.2-2.8-3.8-2.8-3.8s-1.2,2.3-0.4,4.2c0.7,1.9,2,3.1,2.5,3.5
		c-0.8,1.6-1.4,3.3-2,5c0-0.9,0-2-0.3-2.7c-0.9-2.1-3.6-3.3-3.6-3.3S3,27.3,4.2,29.2c1.1,1.8,2.5,2.7,3.1,3
		c-0.5,1.7-0.8,3.4-1.1,5.1c-0.1-0.9-0.3-1.9-0.7-2.5c-1.2-1.9-4.2-2.7-4.2-2.7s-0.3,2.7,1.2,4.4c1.4,1.5,2.9,2.2,3.6,2.5
		c-0.2,1.6-0.2,3.3-0.2,4.9c-0.3-0.8-0.7-1.6-1.1-2.2C3,39.9,0,39.7,0,39.7s0.1,2.8,1.9,4.2c1.6,1.3,3.2,1.7,3.9,1.9
		c0.1,1.5,0.3,3.1,0.7,4.7c-0.4-0.7-0.9-1.5-1.5-2c-1.9-1.5-5-1.2-5-1.2s0.6,2.8,2.6,3.9c1.9,1,3.6,1.1,4.4,1.2
		c0.4,1.5,0.8,2.9,1.4,4.3C7.8,56,7.2,55.3,6.5,55c-2.1-1.1-5.2-0.3-5.2-0.3s1.1,2.7,3.3,3.4c2,0.7,3.7,0.6,4.5,0.4
		c0.7,1.4,1.4,2.8,2.3,4.1c-0.7-0.6-1.5-1.2-2.2-1.4C6.9,60.5,3.9,62,3.9,62s1.6,2.4,4,2.8c2.2,0.3,3.9-0.2,4.7-0.5
		c0.9,1.3,1.9,2.6,3,3.7c-0.8-0.5-1.7-0.9-2.5-1c-2.5-0.3-5.2,1.6-5.2,1.6s2.1,2.2,4.5,2.1c2.2,0,3.9-0.8,4.6-1.2
		c1.2,1.2,2.4,2.3,3.7,3.3l-5.3-1.1c-0.9-0.2-1.8,0.1-2.5,0.6c-0.7,0.5-1.1,1.4-1.1,2.3v5.1l-1.7-0.4c-0.2-0.1-0.4-0.1-0.6-0.1
		c-1.6,0-2.9,1.3-2.9,3.1v1.4c0,1.5,1,2.8,2.4,3.1l40.2,8.1v0.1h0.2l5.9,2l6-2h0.2v-0.1l40.2-8.3c1.3-0.3,2.4-1.5,2.4-3v-1.5
		c-0.1-1.7-1.3-3.1-2.9-3.1c-0.2,0-0.4,0-0.6,0.1L99,79.7v-4.9c0-0.9-0.4-1.8-1.1-2.3c-0.7-0.6-1.6-0.8-2.5-0.6L89.2,73
		c1.3-1,2.6-2.2,3.8-3.4c0.7,0.4,2.4,1.2,4.6,1.3c2.4,0.1,4.5-2.2,4.5-2.2s-2.7-1.9-5.2-1.6c-0.8,0.1-1.7,0.5-2.4,1
		c1-1.1,2-2.4,2.9-3.6c0.8,0.3,2.5,0.7,4.7,0.4c2.4-0.3,4-2.8,4-2.8s-3-1.4-5.3-0.6c-0.7,0.2-1.5,0.7-2.1,1.3
		c0.8-1.3,1.5-2.6,2.2-4.1c0.8,0.1,2.5,0.3,4.5-0.4c2.2-0.8,3.3-3.4,3.3-3.4s-3.1-0.9-5.2,0.3c-0.6,0.3-1.3,0.9-1.8,1.6
		c0.5-1.4,1-2.8,1.4-4.3C103.8,52.4,105.5,52.2,107.3,51.2z M80.5,47.7H85v9.2h-4.6V47.7z M80.5,59.5H85v9.2h-4.6V59.5z M66.7,37.9
		H71v8.8h-4.3V37.9z M66.7,48.9H71v8.8h-4.3V48.9z M66.7,59.8H71v8.8h-4.3V59.8z M57.6,37.9h4.2v8.8h-4.2V37.9z M57.6,48.9h4.2v8.8
		h-4.2V48.9z M62.8,61.3v12.3h-6.3V61.3H62.8z M48.5,37.9h4.2v8.8h-4.2V37.9z M48.5,48.9h4.2v8.8h-4.2V48.9z M53.8,61.3v12.3h-6.3
		V61.3H53.8z M39.3,37.9h4.3v8.8h-4.3V37.9z M39.3,48.9h4.3v8.8h-4.3V48.9z M39.3,59.8h4.3v8.8h-4.3V59.8z M25.2,47.7h4.6v9.2h-4.6
		V47.7z M25.2,59.5h4.6v9.2h-4.6V59.5z M52.1,84.9c-2.1-2-4.5-3.3-7.2-3.7l-28.6-6.1c-0.6-0.1-1.1,0.3-1.2,0.8
		c-0.1,0.6,0.3,1.1,0.8,1.2l28.6,6.1c0.1,0,0.1,0,0.1,0c2.2,0.3,4.3,1.4,6,3l-3.3-1.5c-0.1,0-0.1,0-0.2-0.1L16.4,78
		c-0.5-0.1-1.1,0.3-1.2,0.8c-0.1,0.5,0.3,1.1,0.8,1.2l30.5,6.6l4.2,1.9h-0.4l-36.6-8.2v-5.6c0-0.3,0.1-0.6,0.4-0.8
		c0.3-0.2,0.5-0.3,0.8-0.3l32.2,6.5h0.1c3.3,0.4,5.8,3.1,6.8,6.5L52.1,84.9z M61.1,90.4C61.1,90.4,61.1,90.4,61.1,90.4L61.1,90.4z
		 M95.8,73.7c0.3-0.1,0.6,0,0.8,0.3c0.3,0.2,0.4,0.4,0.4,0.8v5.4l-36.6,8.4H60l4.2-1.9L94.8,80c0.5-0.1,0.8-0.7,0.8-1.2
		c-0.1-0.6-0.7-0.9-1.2-0.8l-30.7,6.7c-0.1,0.1-0.1,0.1-0.2,0.1l-3.4,1.5c1.7-1.7,3.8-2.8,6-3.1c0,0,0,0,0.1,0l28.6-6.1
		c0.5-0.1,0.8-0.6,0.8-1.2c-0.1-0.5-0.6-0.8-1.2-0.8l-28.6,6.1c-2.7,0.4-5.1,1.7-7.2,3.7l-1.9,1.9c0.9-3.4,3.5-6,6.8-6.5
		c0,0,0,0,0.1,0L95.8,73.7z"/>
	<polygon class="st0" points="67.9,11.6 67.9,11.1 55.1,4.9 42.4,11.1 42.4,11.6 55.1,17.8 	"/>
	<polygon class="st0" points="46.8,15.1 46.8,18.8 54.5,22.5 55.8,22.5 63.5,18.8 63.5,15.1 55.1,19.2 	"/>
	<polygon class="st0" points="65.5,14.1 65.5,20.8 64.9,22.8 65.9,24.1 66.2,24.1 67.2,22.8 66.6,20.8 66.6,13.6 	"/>
</g>
</svg>
