<?xml version="1.0" encoding="utf-8"?>
<!-- Generator: Adobe Illustrator 19.0.0, SVG Export Plug-In . SVG Version: 6.00 Build 0)  -->
<svg version="1.1" id="Слой_1" xmlns="http://www.w3.org/2000/svg" xmlns:xlink="http://www.w3.org/1999/xlink" x="0px" y="0px"
	 width="1000px" height="1000px" viewBox="20 -220 1000 1000" style="enable-background:new 20 -220 1000 1000;"
	 xml:space="preserve">
<style type="text/css">
	.st0{fill:#113B7F;}
	.st1{fill:#FFFFFF;}
</style>
<path id="XMLID_15_" class="st0" d="M137.2-202.1l2.2,2.2h-18.2c-0.8,0-1.4,0.6-1.4,1.4l0,0c0,0.8,0.6,1.4,1.4,1.4h18.2l-2.2,2.2
	c-0.5,0.5-0.5,1.4,0,2l0,0c0.5,0.5,1.4,0.5,2,0l4.1-4.1c0.8-0.8,0.8-2,0-2.8l-4.1-4.1c-0.5-0.5-1.4-0.5-2,0l0,0
	C136.6-203.5,136.6-202.6,137.2-202.1z"/>
<path id="XMLID_20_" class="st1" d="M205.9-202.1l2.2,2.2h-18.2c-0.8,0-1.4,0.6-1.4,1.4l0,0c0,0.8,0.6,1.4,1.4,1.4h18.2l-2.2,2.2
	c-0.5,0.5-0.5,1.4,0,2l0,0c0.5,0.5,1.4,0.5,2,0l4.1-4.1c0.8-0.8,0.8-2,0-2.8l-4.1-4.1c-0.5-0.5-1.4-0.5-2,0l0,0
	C205.4-203.5,205.4-202.6,205.9-202.1z"/>
<path id="XMLID_19_" class="st0" d="M87.2-202.1l-2.2,2.2h18.2c0.8,0,1.4,0.6,1.4,1.4l0,0c0,0.8-0.6,1.4-1.4,1.4H85l2.2,2.2
	c0.5,0.5,0.5,1.4,0,2l0,0c-0.5,0.5-1.4,0.5-2,0l-4.1-4.1c-0.8-0.8-0.8-2,0-2.8l4.1-4.1c0.5-0.5,1.4-0.5,2,0l0,0
	C87.7-203.5,87.7-202.6,87.2-202.1z"/>
<g id="XMLID_16_">
	<g id="XMLID_12_">
		<g id="XMLID_13_">
			<g id="XMLID_14_">
				<path id="XMLID_23_" class="st0" d="M81.6-105.4c2.9,0,5.3-2.2,5.7-5l5.2-3.9c0.6-0.5,0.8-1.4,0.3-2s-1.4-0.8-2-0.3l-3.7,2.7
					c-0.5-1.7-2.2-3-4.1-3h-5.7c-2.4,0-4.3,1.9-4.3,4.3c0-2.4-1.9-4.3-4.3-4.3H63c-1.9,0-3.5,1.3-4.1,3l-3.7-2.7
					c-0.6-0.5-1.5-0.3-2,0.3c-0.5,0.6-0.3,1.5,0.3,2l5.2,3.9c0.4,2.8,2.8,5,5.7,5h2.9c3.2,0,5.7-2.6,5.7-5.7c0,3.2,2.6,5.7,5.7,5.7
					H81.6z M70.1-111.1c0,1.6-1.3,2.9-2.9,2.9h-2.9c-1.6,0-2.9-1.3-2.9-2.9v-1.4c0-0.8,0.6-1.4,1.4-1.4h5.7c0.8,0,1.4,0.6,1.4,1.4
					L70.1-111.1L70.1-111.1z M75.9-111.1v-1.4c0-0.8,0.6-1.4,1.4-1.4H83c0.8,0,1.4,0.6,1.4,1.4v1.4c0,1.6-1.3,2.9-2.9,2.9h-2.9
					C77.2-108.2,75.9-109.5,75.9-111.1z"/>
				<path id="XMLID_7_" class="st0" d="M116-64.2l-1.5-5.8c-0.7-2.2-5.1-9.3-30-9.5V-81c0-0.8-0.6-1.4-1.4-1.4s-1.4,0.6-1.4,1.4v2.9
					l0,0l0,0c0,0.9-0.3,8.5-8.6,8.5s-8.6-7.7-8.6-8.6V-81c0-0.8-0.6-1.4-1.4-1.4s-1.4,0.6-1.4,1.4v1.4c-18.6,0.1-27.9,3.1-30.1,9.7
					l-1.4,5.7c-0.2,0.8,0.3,1.5,1,1.7c0.8,0.2,1.5-0.3,1.7-1l1.4-5.6c1.7-5,10.6-7.5,27.4-7.6c0.5,4.1,3.3,10,11.4,10
					s10.8-5.9,11.4-10c19.6,0.1,26.5,4.8,27.4,7.5l1.4,5.7c0.2,0.7,0.7,1.1,1.4,1.1c0.1,0,0.2,0,0.3,0
					C115.7-62.6,116.1-63.4,116-64.2z"/>
				<path id="XMLID_18_" class="st0" d="M39.8-141.2l33,4.3c0.1,0,0.1,0,0.2,0s0.1,0,0.2,0l31.3-4.1v5c-0.9,1-2.9,3.5-2.9,6.3
					c0,3.2,2.6,4.3,4.3,4.3s4.3-1.1,4.3-4.3c0-2.8-2-5.3-2.9-6.3v-6.6c0-0.2,0-0.4-0.1-0.5c0-0.1-0.1-0.1-0.1-0.2
					c-0.1-0.1-0.1-0.2-0.2-0.3c-0.1-0.1-0.1-0.1-0.2-0.1c-0.1-0.1-0.2-0.1-0.3-0.2c-0.1,0-0.1,0-0.2-0.1c-0.1,0-0.1-0.1-0.2-0.1
					l-33-4.3c-0.1,0-0.2,0-0.4,0l-33,4.3c-0.7,0.1-1.2,0.7-1.2,1.4C38.6-141.9,39.1-141.3,39.8-141.2z M107.4-129.7
					c0,1.1-0.8,1.4-1.4,1.4c-0.7,0-1.4-0.3-1.4-1.4c0-1.2,0.7-2.5,1.4-3.5C106.7-132.3,107.4-130.9,107.4-129.7z M73-145.5l21.9,2.9
					L73-139.8l-21.9-2.9L73-145.5z"/>
				<path id="XMLID_3_" class="st0" d="M76.3-96.4c0,0-1.1,1-3.3,1c-2.1,0-3.2-1-3.3-1c-0.6-0.5-1.5-0.5-2,0c-0.6,0.6-0.6,1.5,0,2
					c0.2,0.2,1.9,1.9,5.3,1.9c3.4,0,5.1-1.7,5.3-1.9c0.6-0.6,0.6-1.4,0-2C77.8-96.9,76.9-96.9,76.3-96.4z"/>
				<path id="XMLID_2_" class="st0" d="M50.1-119.5c-1.7,0.6-2.9,2.2-2.9,4.1v5.7c0,2,1.4,3.7,3.2,4.2c0.8,2.3,2.9,8.4,4.1,10.8
					c2.3,4.6,8.7,12.3,18.5,12.3s16.2-7.7,18.5-12.3c1.2-2.4,3.3-8.5,4.1-10.8c1.9-0.5,3.2-2.2,3.2-4.2v-5.7c0-1.9-1.2-3.5-2.9-4.1
					v-1.7c0-0.8-0.6-1.4-1.4-1.4s-1.4,0.6-1.4,1.4v2.9c0,0.8,0.6,1.4,1.4,1.4s1.4,0.6,1.4,1.4v5.7c0,0.8-0.6,1.4-1.4,1.4
					c-0.6,0-1.2,0.4-1.4,1c0,0.1-2.9,8.5-4.2,11.3c-0.2,0.4-5.5,10.7-15.9,10.7S57.3-95.5,57.1-96c-1.4-2.7-4.2-11.2-4.2-11.3
					c-0.2-0.6-0.7-1-1.4-1c-0.8,0-1.4-0.6-1.4-1.4v-5.7c0-0.8,0.6-1.4,1.4-1.4c0.8,0,1.4-0.6,1.4-1.4v-2.9c0-0.8-0.6-1.4-1.4-1.4
					c-0.8,0-1.4,0.6-1.4,1.4V-119.5L50.1-119.5z"/>
				<path id="XMLID_1_" class="st0" d="M51.5-138.3c-0.8,0-1.4,0.6-1.4,1.4v10c0,0.5,0.3,1,0.8,1.3c0.4,0.2,9.1,4.5,22.1,4.5
					s21.8-4.3,22.1-4.5c0.5-0.2,0.8-0.7,0.8-1.3v-10c0-0.8-0.6-1.4-1.4-1.4s-1.4,0.6-1.4,1.4v9.1c-2.4,1-9.9,3.8-20.1,3.8
					s-17.7-2.8-20.1-3.8v-9.1C52.9-137.7,52.3-138.3,51.5-138.3z"/>
			</g>
		</g>
	</g>
	<g id="XMLID_36_">
		<path id="XMLID_122_" class="st0" d="M343.7-97.6c1.6,0,2.9-1.3,2.9-2.9c0-1.7-1.3-2.9-2.9-2.9s-2.9,1.3-2.9,2.9
			C340.8-98.9,342-97.6,343.7-97.6z M343.1-100.5c0-0.3,0.3-0.6,0.6-0.6s0.6,0.3,0.6,0.6c0,0.3-0.3,0.6-0.6,0.6
			S343.1-100.2,343.1-100.5z"/>
		<rect id="XMLID_123_" x="304.8" y="-143" class="st0" width="12.2" height="2.9"/>
		<rect id="XMLID_124_" x="304.8" y="-137.3" class="st0" width="12.2" height="2.9"/>
		<rect id="XMLID_125_" x="304.8" y="-131.6" class="st0" width="12.2" height="2.9"/>
		<rect id="XMLID_126_" x="307.2" y="-126" class="st0" width="7.8" height="2.9"/>
		<rect id="XMLID_127_" x="286.2" y="-143" class="st0" width="12.2" height="2.9"/>
		<rect id="XMLID_128_" x="286.2" y="-137.3" class="st0" width="12.2" height="2.9"/>
		<rect id="XMLID_129_" x="286.2" y="-131.6" class="st0" width="12.2" height="2.9"/>
		<rect id="XMLID_130_" x="288.4" y="-126" class="st0" width="7.8" height="2.9"/>
		<path id="XMLID_133_" class="st0" d="M356.2-135.3h-26.8v-7.5c0-1.1-0.9-2-2-2h-2.1v-0.6c0-1.1-0.9-2-2-2H287c-1.1,0-2,0.9-2,2
			v0.6h-2.1c-1.1,0-2,0.9-2,2v7.5h-3.6c-2.2,0-4,1.8-4,4v54.4c0,2.2,1.8,4,4,4H305l-4.4,6.6h-4c-0.8,0-1.4,0.6-1.4,1.4l0,0
			c0,0.8,0.6,1.4,1.4,1.4H337c0.8,0,1.4-0.6,1.4-1.4l0,0c0-0.8-0.6-1.4-1.4-1.4h-4l-4.4-6.4h27.7c2.2,0,4-1.8,4-4v-54.6
			C360.2-133.5,358.4-135.3,356.2-135.3z M304.1-66.2l4.4-6.4h16.6l4.4,6.4H304.1z M287.9-120.3v-24.2h15.9v24.2H287.9z
			 M306.7-120.3v-24.2h15.9v24.2H306.7z M325.5-117.4v-24.5h1.2v25.8h-42.9v-25.8h1.2v24.5H325.5z M303.8-113.2v6
			c0,8.7,7.1,15.8,15.8,15.8s15.8-7.1,15.8-15.8v-5.8c0-2.8,2.3-5.1,5.1-5.1c2.8,0,5.1,2.3,5.1,5.1v6.2c-3.8,0.7-6.6,4.1-6.6,7.9
			v5.8c0,4.5,3.6,8.1,8.1,8.1s8.1-3.6,8.1-8.1v-5.8c0-3.9-2.9-7.3-6.6-7.9v-6.2c0-4.4-3.6-8-8-8s-8,3.6-8,8v5.8c0,7.1-5.8,13-13,13
			s-13-5.8-13-13v-6h22.9v-19.2h26.6c0.7,0,1.1,0.6,1.1,1.1v48.2h-81.3v-48.2c0-0.5,0.4-1.1,1.1-1.1h3.6v19.2H303.8z M342.1-93.1
			v-5.8c0-2.9,2.3-5.2,5.2-5.2s5.2,2.3,5.2,5.2v5.8c0,2.9-2.3,5.2-5.2,5.2S342.1-90.2,342.1-93.1z M357.3-80.1v3.4
			c0,0.5-0.4,1.1-1.1,1.1h-78.9c-0.7,0-1.1-0.6-1.1-1.1v-3.4H357.3z"/>
	</g>
	<g id="XMLID_56_">
		<g id="XMLID_57_">
			<g id="XMLID_58_">
				<path id="XMLID_54_" class="st0" d="M203.3-118.3c0,0.8,0.6,1.4,1.4,1.4H219c0.8,0,1.4-0.6,1.4-1.4s-0.6-1.4-1.4-1.4h-14.3
					C203.9-119.7,203.3-119.1,203.3-118.3z"/>
				<path id="XMLID_53_" class="st0" d="M211.9-109.7c0,0.8,0.6,1.4,1.4,1.4h8.6c0.8,0,1.4-0.6,1.4-1.4s-0.6-1.4-1.4-1.4h-8.6
					C212.5-111.1,211.9-110.5,211.9-109.7z"/>
				<path id="XMLID_52_" class="st0" d="M210.4-125.5c0.8,0,1.4-0.6,1.4-1.4s-0.6-1.4-1.4-1.4h-2.9c-0.8,0-1.4,0.6-1.4,1.4
					s0.6,1.4,1.4,1.4H210.4z"/>
				<path id="XMLID_51_" class="st0" d="M193.2-111.1c-0.8,0-1.4,0.6-1.4,1.4s0.6,1.4,1.4,1.4h14.3c0.8,0,1.4-0.6,1.4-1.4
					s-0.6-1.4-1.4-1.4H193.2z"/>
				<path id="XMLID_50_" class="st0" d="M200.4-71h-27.2c-2.4,0-4.3-1.9-4.3-4.3v-66c0-0.8-0.6-1.4-1.4-1.4c-4,0-7.2,3.2-7.2,7.2
					c0,0.8,0.6,1.4,1.4,1.4c0.8,0,1.4-0.6,1.4-1.4c0-1.9,1.2-3.5,2.9-4.1v64.3c0,4,3.2,7.2,7.2,7.2h27.2c0.8,0,1.4-0.6,1.4-1.4
					C201.8-70.3,201.2-71,200.4-71z"/>
				<path id="XMLID_49_" class="st0" d="M178.9-116.9H199c0.8,0,1.4-0.6,1.4-1.4s-0.6-1.4-1.4-1.4h-20.1c-0.8,0-1.4,0.6-1.4,1.4
					C177.4-117.5,178.1-116.9,178.9-116.9z"/>
				<path id="XMLID_48_" class="st0" d="M178.9-125.5h5.7c0.8,0,1.4-0.6,1.4-1.4s-0.6-1.4-1.4-1.4h-5.7c-0.8,0-1.4,0.6-1.4,1.4
					S178.1-125.5,178.9-125.5z"/>
				<path id="XMLID_47_" class="st0" d="M201.8-128.3h-11.5c-0.8,0-1.4,0.6-1.4,1.4s0.6,1.4,1.4,1.4h11.5c0.8,0,1.4-0.6,1.4-1.4
					C203.3-127.7,202.6-128.3,201.8-128.3z"/>
				<path id="XMLID_46_" class="st0" d="M221.9-148.4h-54.5c-7.1,0-12.9,5.8-12.9,12.9l0,0l0,0l0,0l0,0c0,4.6,2.5,8.8,6.5,11.1
					c0.7,0.4,1.6,0.2,2-0.5s0.2-1.6-0.5-2c-3.1-1.8-5-5.1-5-8.7c0-5.5,4.5-10,10-10H222c5.5,0,10,4.5,10,10v60.2
					c0,0.7-0.2,1.5-0.6,2.1c-0.4,0.7-0.2,1.6,0.5,2c0.2,0.1,0.5,0.2,0.7,0.2c0.5,0,1-0.3,1.2-0.7c0.6-1.1,1-2.3,1-3.6v-60.1
					C234.8-142.6,229-148.4,221.9-148.4z"/>
				<path id="XMLID_65_" class="st0" d="M226.2-82.4c0-4.7-3.9-8.6-8.6-8.6s-8.6,3.9-8.6,8.6c0,4.7,3.9,8.6,8.6,8.6
					S226.2-77.7,226.2-82.4z M217.6-76.7c-3.2,0-5.7-2.6-5.7-5.7c0-3.2,2.6-5.7,5.7-5.7c3.2,0,5.7,2.6,5.7,5.7
					S220.8-76.7,217.6-76.7z"/>
				<path id="XMLID_43_" class="st0" d="M215-72.4c-0.7-0.4-1.6-0.2-2,0.5l-3.1,5.3l-0.5-0.7c-0.2-0.4-0.7-0.6-1.1-0.6l-0.9-0.1
					l3.1-5.4c0.4-0.7,0.2-1.6-0.5-2s-1.6-0.2-2,0.5l-4.3,7.4c-0.2,0.4-0.3,1,0,1.4s0.7,0.7,1.2,0.8l2.5,0.1l1.4,2.1
					c0.3,0.4,0.7,0.6,1.2,0.6l0,0c0.5,0,0.9-0.3,1.2-0.7l4.2-7.4C215.9-71.1,215.7-72,215-72.4z"/>
				<path id="XMLID_42_" class="st0" d="M227.1-74.8c-0.4-0.7-1.3-0.9-2-0.5s-0.9,1.3-0.5,2l3.1,5.4l-0.9,0.1
					c-0.5,0-0.9,0.3-1.1,0.6l-0.5,0.7l-3.1-5.3c-0.4-0.7-1.3-0.9-2-0.5s-0.9,1.3-0.5,2l4.2,7.3c0.2,0.4,0.7,0.7,1.2,0.7l0,0
					c0.5,0,0.9-0.2,1.2-0.6l1.4-2.1l2.5-0.2c0.5,0,0.9-0.3,1.2-0.8c0.2-0.4,0.2-1,0-1.4L227.1-74.8z"/>
				<path id="XMLID_41_" class="st0" d="M178.9-108.3h8.6c0.8,0,1.4-0.6,1.4-1.4s-0.6-1.4-1.4-1.4h-8.6c-0.8,0-1.4,0.6-1.4,1.4
					S178.1-108.3,178.9-108.3z"/>
				<path id="XMLID_40_" class="st0" d="M178.9-99.6h17.2c0.8,0,1.4-0.6,1.4-1.4s-0.6-1.4-1.4-1.4h-17.2c-0.8,0-1.4,0.6-1.4,1.4
					C177.4-100.3,178.1-99.6,178.9-99.6z"/>
				<path id="XMLID_39_" class="st0" d="M179-81.8c0.4,0.7,1.2,1,1.9,0.6s1-1.2,0.6-1.9c-1.4-2.8-1.7-5.4-0.9-6.8
					c0.5-0.8,1.3-1.1,2.4-1.1c0.7,0,0.9,0.2,1.1,0.5c1.1,1.5,0.1,6.2-1,9.1c-0.2,0.6,0,1.3,0.6,1.7s1.3,0.3,1.8-0.2
					c0.6-0.6,1.3-1.2,1.9-1.7v0.7c0,0.6,0.3,1.1,0.9,1.3c0.5,0.2,1.2,0.1,1.6-0.3c0.7-0.7,1.4-1.3,2.1-1.8c0,0,0,0.1-0.1,0.1
					c-0.2,0.4-0.2,1,0.1,1.4s0.7,0.7,1.2,0.7h5.7c0.8,0,1.4-0.6,1.4-1.4c0-0.8-0.6-1.4-1.4-1.4h-3.7c0.1-0.7,0.1-1.4-0.3-1.9
					c-0.4-0.6-1-0.9-1.7-0.9c-0.9,0-1.9,0.5-2.9,1.2c-0.1-0.6-0.4-1.1-1-1.4c-0.4-0.2-0.9-0.4-2.1,0.4c0.5-2.5,0.6-5.3-0.6-7.1
					c-0.5-0.8-1.6-1.7-3.5-1.7c-2.1,0-3.9,0.9-4.9,2.5C176.9-89.1,177.1-85.6,179-81.8z"/>
				<path id="XMLID_11_" class="st0" d="M217.6-101.1c0-0.8-0.6-1.4-1.4-1.4h-14.3c-0.8,0-1.4,0.6-1.4,1.4s0.6,1.4,1.4,1.4h14.3
					C216.9-99.6,217.6-100.3,217.6-101.1z"/>
			</g>
		</g>
	</g>
</g>
<g id="XMLID_60_">
	<g id="XMLID_61_">
		<g id="XMLID_62_">
			<path id="XMLID_55_" d="M52.5-191.8l-3.6-3.6c-0.7-0.7-1.9-0.7-2.6,0l-1.8,1.8c-0.1-0.1-0.2-0.1-0.4-0.2
				c-1.1-0.6-2.7-1.5-4.3-3.1c-1.6-1.6-2.5-3.2-3.1-4.3c-0.1-0.1-0.1-0.2-0.2-0.3l1.2-1.2l0.6-0.6c0.7-0.7,0.8-1.9,0-2.6l-3.6-3.6
				c-0.7-0.7-1.9-0.7-2.6,0l-1,1l0,0c-0.3,0.4-0.6,0.9-0.8,1.5c-0.2,0.5-0.3,1-0.4,1.5c-0.5,3.9,1.3,7.4,6.1,12.3
				c6.7,6.7,12,6.2,12.3,6.1c0.5-0.1,1-0.2,1.5-0.4c0.5-0.2,1-0.5,1.4-0.8l0,0l1-1C53.2-190,53.2-191.1,52.5-191.8z"/>
		</g>
	</g>
</g>
</svg>
