<?xml version="1.0" encoding="utf-8"?>
<!-- Generator: Adobe Illustrator 19.0.0, SVG Export Plug-In . SVG Version: 6.00 Build 0)  -->
<svg version="1.1" id="Слой_1" xmlns="http://www.w3.org/2000/svg" xmlns:xlink="http://www.w3.org/1999/xlink" x="0px" y="0px"
	 width="1000px" height="1000px" viewBox="0 0 1000 1000" style="enable-background:new 0 0 1000 1000;" xml:space="preserve">
<style type="text/css">
	.st0{fill:#113B7F;}
	.st1{fill:#FFFFFF;}
</style>
<path id="XMLID_15_" class="st0" d="M117.2,17.9l2.2,2.2h-18.2c-0.8,0-1.4,0.6-1.4,1.4v0c0,0.8,0.6,1.4,1.4,1.4h18.2l-2.2,2.2
	c-0.5,0.5-0.5,1.4,0,2v0c0.5,0.5,1.4,0.5,2,0l4.1-4.1c0.8-0.8,0.8-2,0-2.8l-4.1-4.1c-0.5-0.5-1.4-0.5-2,0v0
	C116.6,16.5,116.6,17.4,117.2,17.9z"/>
<path id="XMLID_20_" class="st1" d="M165.9,17.9l2.2,2.2h-18.2c-0.8,0-1.4,0.6-1.4,1.4v0c0,0.8,0.6,1.4,1.4,1.4h18.2l-2.2,2.2
	c-0.5,0.5-0.5,1.4,0,2l0,0c0.5,0.5,1.4,0.5,2,0l4.1-4.1c0.8-0.8,0.8-2,0-2.8l-4.1-4.1c-0.5-0.5-1.4-0.5-2,0l0,0
	C165.4,16.5,165.4,17.4,165.9,17.9z"/>
<path id="XMLID_19_" class="st0" d="M67.2,17.9L65,20.1h18.2c0.8,0,1.4,0.6,1.4,1.4v0c0,0.8-0.6,1.4-1.4,1.4H65l2.2,2.2
	c0.5,0.5,0.5,1.4,0,2v0c-0.5,0.5-1.4,0.5-2,0l-4.1-4.1c-0.8-0.8-0.8-2,0-2.8l4.1-4.1c0.5-0.5,1.4-0.5,2,0l0,0
	C67.7,16.5,67.7,17.4,67.2,17.9z"/>
<g id="XMLID_16_">
	<g id="XMLID_12_">
		<g id="XMLID_13_">
			<g id="XMLID_14_">
				<path id="XMLID_23_" class="st0" d="M61.6,114.6c2.9,0,5.3-2.2,5.7-5l5.2-3.9c0.6-0.5,0.8-1.4,0.3-2c-0.5-0.6-1.4-0.8-2-0.3
					l-3.7,2.7c-0.5-1.7-2.2-3-4.1-3h-5.7c-2.4,0-4.3,1.9-4.3,4.3c0-2.4-1.9-4.3-4.3-4.3H43c-1.9,0-3.5,1.3-4.1,3l-3.7-2.7
					c-0.6-0.5-1.5-0.3-2,0.3c-0.5,0.6-0.3,1.5,0.3,2l5.2,3.9c0.4,2.8,2.8,5,5.7,5h2.9c3.2,0,5.7-2.6,5.7-5.7c0,3.2,2.6,5.7,5.7,5.7
					H61.6z M50.1,108.9c0,1.6-1.3,2.9-2.9,2.9h-2.9c-1.6,0-2.9-1.3-2.9-2.9v-1.4c0-0.8,0.6-1.4,1.4-1.4h5.7c0.8,0,1.4,0.6,1.4,1.4
					L50.1,108.9L50.1,108.9z M55.9,108.9v-1.4c0-0.8,0.6-1.4,1.4-1.4H63c0.8,0,1.4,0.6,1.4,1.4v1.4c0,1.6-1.3,2.9-2.9,2.9h-2.9
					C57.2,111.8,55.9,110.5,55.9,108.9z"/>
				<path id="XMLID_7_" class="st0" d="M96,155.8l-1.5-5.8c-0.7-2.2-5.1-9.3-30-9.5V139c0-0.8-0.6-1.4-1.4-1.4s-1.4,0.6-1.4,1.4v2.9
					c0,0,0,0,0,0c0,0,0,0,0,0c0,0.9-0.3,8.5-8.6,8.5s-8.6-7.7-8.6-8.6V139c0-0.8-0.6-1.4-1.4-1.4s-1.4,0.6-1.4,1.4v1.4
					c-18.6,0.1-27.9,3.1-30.1,9.7l-1.4,5.7c-0.2,0.8,0.3,1.5,1,1.7c0.8,0.2,1.5-0.3,1.7-1l1.4-5.6c1.7-5,10.6-7.5,27.4-7.6
					c0.5,4.1,3.3,10,11.4,10c8.1,0,10.8-5.9,11.4-10c19.6,0.1,26.5,4.8,27.4,7.5l1.4,5.7c0.2,0.7,0.7,1.1,1.4,1.1c0.1,0,0.2,0,0.3,0
					C95.7,157.4,96.1,156.6,96,155.8z"/>
				<path id="XMLID_18_" class="st0" d="M19.8,78.8l33,4.3c0.1,0,0.1,0,0.2,0s0.1,0,0.2,0L84.5,79v5c-0.9,1-2.9,3.5-2.9,6.3
					c0,3.2,2.6,4.3,4.3,4.3s4.3-1.1,4.3-4.3c0-2.8-2-5.3-2.9-6.3v-6.6c0-0.2,0-0.4-0.1-0.5c0-0.1-0.1-0.1-0.1-0.2
					c-0.1-0.1-0.1-0.2-0.2-0.3c-0.1-0.1-0.1-0.1-0.2-0.1c-0.1-0.1-0.2-0.1-0.3-0.2c-0.1,0-0.1,0-0.2-0.1c-0.1,0-0.1-0.1-0.2-0.1
					l-33-4.3c-0.1,0-0.2,0-0.4,0l-33,4.3c-0.7,0.1-1.2,0.7-1.2,1.4C18.6,78.1,19.1,78.7,19.8,78.8z M87.4,90.3
					c0,1.1-0.8,1.4-1.4,1.4c-0.7,0-1.4-0.3-1.4-1.4c0-1.2,0.7-2.5,1.4-3.5C86.7,87.7,87.4,89.1,87.4,90.3z M53,74.5l21.9,2.9
					L53,80.2l-21.9-2.9L53,74.5z"/>
				<path id="XMLID_3_" class="st0" d="M56.3,123.6c0,0-1.1,1-3.3,1c-2.1,0-3.2-1-3.3-1c-0.6-0.5-1.5-0.5-2,0c-0.6,0.6-0.6,1.5,0,2
					c0.2,0.2,1.9,1.9,5.3,1.9c3.4,0,5.1-1.7,5.3-1.9c0.6-0.6,0.6-1.4,0-2C57.8,123.1,56.9,123.1,56.3,123.6z"/>
				<path id="XMLID_2_" class="st0" d="M30.1,100.5c-1.7,0.6-2.9,2.2-2.9,4.1v5.7c0,2,1.4,3.7,3.2,4.2c0.8,2.3,2.9,8.4,4.1,10.8
					c2.3,4.6,8.7,12.3,18.5,12.3s16.2-7.7,18.5-12.3c1.2-2.4,3.3-8.5,4.1-10.8c1.9-0.5,3.2-2.2,3.2-4.2v-5.7c0-1.9-1.2-3.5-2.9-4.1
					v-1.7c0-0.8-0.6-1.4-1.4-1.4s-1.4,0.6-1.4,1.4v2.9c0,0.8,0.6,1.4,1.4,1.4c0.8,0,1.4,0.6,1.4,1.4v5.7c0,0.8-0.6,1.4-1.4,1.4
					c-0.6,0-1.2,0.4-1.4,1c0,0.1-2.9,8.5-4.2,11.3c-0.2,0.4-5.5,10.7-15.9,10.7S37.3,124.5,37.1,124c-1.4-2.7-4.2-11.2-4.2-11.3
					c-0.2-0.6-0.7-1-1.4-1c-0.8,0-1.4-0.6-1.4-1.4v-5.7c0-0.8,0.6-1.4,1.4-1.4c0.8,0,1.4-0.6,1.4-1.4v-2.9c0-0.8-0.6-1.4-1.4-1.4
					s-1.4,0.6-1.4,1.4L30.1,100.5L30.1,100.5z"/>
				<path id="XMLID_1_" class="st0" d="M31.5,81.7c-0.8,0-1.4,0.6-1.4,1.4v10c0,0.5,0.3,1,0.8,1.3c0.4,0.2,9.1,4.5,22.1,4.5
					s21.8-4.3,22.1-4.5c0.5-0.2,0.8-0.7,0.8-1.3v-10c0-0.8-0.6-1.4-1.4-1.4c-0.8,0-1.4,0.6-1.4,1.4v9.1c-2.4,1-9.9,3.8-20.1,3.8
					s-17.7-2.8-20.1-3.8v-9.1C32.9,82.3,32.3,81.7,31.5,81.7z"/>
			</g>
		</g>
	</g>
	<g id="XMLID_36_">
		<path id="XMLID_122_" class="st0" d="M323.7,122.4c1.6,0,2.9-1.3,2.9-2.9c0-1.7-1.3-2.9-2.9-2.9c-1.6,0-2.9,1.3-2.9,2.9
			C320.8,121.1,322,122.4,323.7,122.4z M323.1,119.5c0-0.3,0.3-0.6,0.6-0.6s0.6,0.3,0.6,0.6c0,0.3-0.3,0.6-0.6,0.6
			S323.1,119.8,323.1,119.5z"/>
		<rect id="XMLID_123_" x="284.8" y="77" class="st0" width="12.2" height="2.9"/>
		<rect id="XMLID_124_" x="284.8" y="82.7" class="st0" width="12.2" height="2.9"/>
		<rect id="XMLID_125_" x="284.8" y="88.4" class="st0" width="12.2" height="2.9"/>
		<rect id="XMLID_126_" x="287.2" y="94" class="st0" width="7.8" height="2.9"/>
		<rect id="XMLID_127_" x="266.2" y="77" class="st0" width="12.2" height="2.9"/>
		<rect id="XMLID_128_" x="266.2" y="82.7" class="st0" width="12.2" height="2.9"/>
		<rect id="XMLID_129_" x="266.2" y="88.4" class="st0" width="12.2" height="2.9"/>
		<rect id="XMLID_130_" x="268.4" y="94" class="st0" width="7.8" height="2.9"/>
		<path id="XMLID_133_" class="st0" d="M336.2,84.7h-26.8v-7.5c0-1.1-0.9-2-2-2h-2.1v-0.6c0-1.1-0.9-2-2-2H267c-1.1,0-2,0.9-2,2v0.6
			h-2.1c-1.1,0-2,0.9-2,2v7.5h-3.6c-2.2,0-4,1.8-4,4v54.4c0,2.2,1.8,4,4,4H285l-4.4,6.6h-4c-0.8,0-1.4,0.6-1.4,1.4l0,0
			c0,0.8,0.6,1.4,1.4,1.4h40.4c0.8,0,1.4-0.6,1.4-1.4l0,0c0-0.8-0.6-1.4-1.4-1.4h-4l-4.4-6.4h27.7c2.2,0,4-1.8,4-4V88.7
			C340.2,86.5,338.4,84.7,336.2,84.7z M284.1,153.8l4.4-6.4h16.6l4.4,6.4H284.1z M267.9,99.7V75.5h15.9v24.2H267.9z M286.7,99.7
			V75.5h15.9v24.2H286.7z M305.5,102.6V78.1h1.2v25.8h-42.9V78.1h1.2v24.5H305.5z M283.8,106.8v6c0,8.7,7.1,15.8,15.8,15.8
			s15.8-7.1,15.8-15.8V107c0-2.8,2.3-5.1,5.1-5.1c2.8,0,5.1,2.3,5.1,5.1v6.2c-3.8,0.7-6.6,4.1-6.6,7.9v5.8c0,4.5,3.6,8.1,8.1,8.1
			s8.1-3.6,8.1-8.1v-5.8c0-3.9-2.9-7.3-6.6-7.9V107c0-4.4-3.6-8-8-8s-8,3.6-8,8v5.8c0,7.1-5.8,13-13,13s-13-5.8-13-13v-6h22.9V87.6
			h26.6c0.7,0,1.1,0.6,1.1,1.1v48.2h-81.3V88.7c0-0.5,0.4-1.1,1.1-1.1h3.6v19.2H283.8z M322.1,126.9v-5.8c0-2.9,2.3-5.2,5.2-5.2
			s5.2,2.3,5.2,5.2v5.8c0,2.9-2.3,5.2-5.2,5.2S322.1,129.8,322.1,126.9z M337.3,139.9v3.4c0,0.5-0.4,1.1-1.1,1.1h-78.9
			c-0.7,0-1.1-0.6-1.1-1.1v-3.4H337.3z"/>
	</g>
	<g id="XMLID_56_">
		<g id="XMLID_57_">
			<g id="XMLID_58_">
				<path id="XMLID_54_" class="st0" d="M183.3,101.7c0,0.8,0.6,1.4,1.4,1.4H199c0.8,0,1.4-0.6,1.4-1.4c0-0.8-0.6-1.4-1.4-1.4h-14.3
					C183.9,100.3,183.3,100.9,183.3,101.7z"/>
				<path id="XMLID_53_" class="st0" d="M191.9,110.3c0,0.8,0.6,1.4,1.4,1.4h8.6c0.8,0,1.4-0.6,1.4-1.4s-0.6-1.4-1.4-1.4h-8.6
					C192.5,108.9,191.9,109.5,191.9,110.3z"/>
				<path id="XMLID_52_" class="st0" d="M190.4,94.5c0.8,0,1.4-0.6,1.4-1.4s-0.6-1.4-1.4-1.4h-2.9c-0.8,0-1.4,0.6-1.4,1.4
					s0.6,1.4,1.4,1.4H190.4z"/>
				<path id="XMLID_51_" class="st0" d="M173.2,108.9c-0.8,0-1.4,0.6-1.4,1.4s0.6,1.4,1.4,1.4h14.3c0.8,0,1.4-0.6,1.4-1.4
					s-0.6-1.4-1.4-1.4H173.2z"/>
				<path id="XMLID_50_" class="st0" d="M180.4,149h-27.2c-2.4,0-4.3-1.9-4.3-4.3v-66c0-0.8-0.6-1.4-1.4-1.4c-4,0-7.2,3.2-7.2,7.2
					c0,0.8,0.6,1.4,1.4,1.4c0.8,0,1.4-0.6,1.4-1.4c0-1.9,1.2-3.5,2.9-4.1v64.3c0,4,3.2,7.2,7.2,7.2h27.2c0.8,0,1.4-0.6,1.4-1.4
					C181.8,149.7,181.2,149,180.4,149z"/>
				<path id="XMLID_49_" class="st0" d="M158.9,103.1h20.1c0.8,0,1.4-0.6,1.4-1.4c0-0.8-0.6-1.4-1.4-1.4h-20.1
					c-0.8,0-1.4,0.6-1.4,1.4C157.4,102.5,158.1,103.1,158.9,103.1z"/>
				<path id="XMLID_48_" class="st0" d="M158.9,94.5h5.7c0.8,0,1.4-0.6,1.4-1.4s-0.6-1.4-1.4-1.4h-5.7c-0.8,0-1.4,0.6-1.4,1.4
					S158.1,94.5,158.9,94.5z"/>
				<path id="XMLID_47_" class="st0" d="M181.8,91.7h-11.5c-0.8,0-1.4,0.6-1.4,1.4s0.6,1.4,1.4,1.4h11.5c0.8,0,1.4-0.6,1.4-1.4
					C183.3,92.3,182.6,91.7,181.8,91.7z"/>
				<path id="XMLID_46_" class="st0" d="M201.9,71.6h-54.5c-7.1,0-12.9,5.8-12.9,12.9v0v0v0v0c0,4.6,2.5,8.8,6.5,11.1
					c0.7,0.4,1.6,0.2,2-0.5c0.4-0.7,0.2-1.6-0.5-2c-3.1-1.8-5-5.1-5-8.7c0-5.5,4.5-10,10-10h54.5c5.5,0,10,4.5,10,10v60.2
					c0,0.7-0.2,1.5-0.6,2.1c-0.4,0.7-0.2,1.6,0.5,2c0.2,0.1,0.5,0.2,0.7,0.2c0.5,0,1-0.3,1.2-0.7c0.6-1.1,1-2.3,1-3.6V84.5
					C214.8,77.4,209,71.6,201.9,71.6z"/>
				<path id="XMLID_65_" class="st0" d="M206.2,137.6c0-4.7-3.9-8.6-8.6-8.6s-8.6,3.9-8.6,8.6c0,4.7,3.9,8.6,8.6,8.6
					S206.2,142.3,206.2,137.6z M197.6,143.3c-3.2,0-5.7-2.6-5.7-5.7c0-3.2,2.6-5.7,5.7-5.7c3.2,0,5.7,2.6,5.7,5.7
					C203.3,140.7,200.8,143.3,197.6,143.3z"/>
				<path id="XMLID_43_" class="st0" d="M195,147.6c-0.7-0.4-1.6-0.2-2,0.5l-3.1,5.3l-0.5-0.7c-0.2-0.4-0.7-0.6-1.1-0.6l-0.9-0.1
					l3.1-5.4c0.4-0.7,0.2-1.6-0.5-2c-0.7-0.4-1.6-0.2-2,0.5l-4.3,7.4c-0.2,0.4-0.3,1,0,1.4s0.7,0.7,1.2,0.8l2.5,0.1l1.4,2.1
					c0.3,0.4,0.7,0.6,1.2,0.6h0c0.5,0,0.9-0.3,1.2-0.7l4.2-7.4C195.9,148.9,195.7,148,195,147.6z"/>
				<path id="XMLID_42_" class="st0" d="M207.1,145.2c-0.4-0.7-1.3-0.9-2-0.5c-0.7,0.4-0.9,1.3-0.5,2l3.1,5.4l-0.9,0.1
					c-0.5,0-0.9,0.3-1.1,0.6l-0.5,0.7l-3.1-5.3c-0.4-0.7-1.3-0.9-2-0.5c-0.7,0.4-0.9,1.3-0.5,2l4.2,7.3c0.2,0.4,0.7,0.7,1.2,0.7h0
					c0.5,0,0.9-0.2,1.2-0.6l1.4-2.1l2.5-0.2c0.5,0,0.9-0.3,1.2-0.8c0.2-0.4,0.2-1,0-1.4L207.1,145.2z"/>
				<path id="XMLID_41_" class="st0" d="M158.9,111.7h8.6c0.8,0,1.4-0.6,1.4-1.4s-0.6-1.4-1.4-1.4h-8.6c-0.8,0-1.4,0.6-1.4,1.4
					S158.1,111.7,158.9,111.7z"/>
				<path id="XMLID_40_" class="st0" d="M158.9,120.4h17.2c0.8,0,1.4-0.6,1.4-1.4c0-0.8-0.6-1.4-1.4-1.4h-17.2
					c-0.8,0-1.4,0.6-1.4,1.4C157.4,119.7,158.1,120.4,158.9,120.4z"/>
				<path id="XMLID_39_" class="st0" d="M159,138.2c0.4,0.7,1.2,1,1.9,0.6c0.7-0.4,1-1.2,0.6-1.9c-1.4-2.8-1.7-5.4-0.9-6.8
					c0.5-0.8,1.3-1.1,2.4-1.1c0.7,0,0.9,0.2,1.1,0.5c1.1,1.5,0.1,6.2-1,9.1c-0.2,0.6,0,1.3,0.6,1.7c0.6,0.4,1.3,0.3,1.8-0.2
					c0.6-0.6,1.3-1.2,1.9-1.7v0.7c0,0.6,0.3,1.1,0.9,1.3c0.5,0.2,1.2,0.1,1.6-0.3c0.7-0.7,1.4-1.3,2.1-1.8c0,0,0,0.1-0.1,0.1
					c-0.2,0.4-0.2,1,0.1,1.4c0.3,0.4,0.7,0.7,1.2,0.7h5.7c0.8,0,1.4-0.6,1.4-1.4c0-0.8-0.6-1.4-1.4-1.4h-3.7
					c0.1-0.7,0.1-1.4-0.3-1.9c-0.4-0.6-1-0.9-1.7-0.9c-0.9,0-1.9,0.5-2.9,1.2c-0.1-0.6-0.4-1.1-1-1.4c-0.4-0.2-0.9-0.4-2.1,0.4
					c0.5-2.5,0.6-5.3-0.6-7.1c-0.5-0.8-1.6-1.7-3.5-1.7c-2.1,0-3.9,0.9-4.9,2.5C156.9,130.9,157.1,134.4,159,138.2z"/>
				<path id="XMLID_11_" class="st0" d="M197.6,118.9c0-0.8-0.6-1.4-1.4-1.4h-14.3c-0.8,0-1.4,0.6-1.4,1.4c0,0.8,0.6,1.4,1.4,1.4
					h14.3C196.9,120.4,197.6,119.7,197.6,118.9z"/>
			</g>
		</g>
	</g>
</g>
<g id="XMLID_60_">
	<g id="XMLID_61_">
		<g id="XMLID_62_">
			<path id="XMLID_55_" d="M32.5,28.2l-3.6-3.6c-0.7-0.7-1.9-0.7-2.6,0l-1.8,1.8c-0.1-0.1-0.2-0.1-0.4-0.2c-1.1-0.6-2.7-1.5-4.3-3.1
				c-1.6-1.6-2.5-3.2-3.1-4.3c-0.1-0.1-0.1-0.2-0.2-0.3l1.2-1.2l0.6-0.6c0.7-0.7,0.8-1.9,0-2.6l-3.6-3.6c-0.7-0.7-1.9-0.7-2.6,0
				l-1,1l0,0c-0.3,0.4-0.6,0.9-0.8,1.5c-0.2,0.5-0.3,1-0.4,1.5c-0.5,3.9,1.3,7.4,6.1,12.3c6.7,6.7,12,6.2,12.3,6.1
				c0.5-0.1,1-0.2,1.5-0.4c0.5-0.2,1-0.5,1.4-0.8l0,0l1-1C33.2,30,33.2,28.9,32.5,28.2z"/>
		</g>
	</g>
</g>
</svg>
